<?xml version="1.0" standalone="no"?>
<!DOCTYPE svg PUBLIC "-//W3C//DTD SVG 20010904//EN"
 "http://www.w3.org/TR/2001/REC-SVG-20010904/DTD/svg10.dtd">
<svg version="1.0" xmlns="http://www.w3.org/2000/svg"
 width="500.000000pt" height="500.000000pt" viewBox="0 0 500.000000 500.000000"
 preserveAspectRatio="xMidYMid meet">

<g transform="translate(0.000000,500.000000) scale(0.100000,-0.100000)"
fill="#000000" stroke="none">
<path d="M2290 3977 c-297 -292 -374 -356 -476 -393 -42 -15 -97 -18 -369 -23
l-320 -6 0 -695 c0 -761 -2 -738 61 -861 76 -151 309 -345 819 -681 242 -160
464 -297 492 -304 25 -7 202 99 573 344 452 298 664 476 743 628 74 143 72
118 72 884 l0 685 -315 5 c-339 6 -347 7 -445 64 -74 44 -205 159 -417 364
-108 106 -200 192 -205 192 -4 -1 -100 -92 -213 -203z m323 -66 c153 -148 374
-339 448 -387 114 -74 152 -82 409 -84 124 -1 240 -4 258 -7 l33 -5 -3 -652
-3 -651 -34 -70 c-81 -166 -377 -402 -936 -745 -110 -67 -212 -131 -227 -141
-14 -11 -35 -19 -46 -19 -29 0 -453 260 -697 428 -282 195 -476 369 -530 477
l-30 60 -3 658 -3 657 29 0 c16 0 136 3 268 6 272 7 291 11 417 93 95 62 176
133 372 324 88 86 163 156 168 157 4 0 53 -45 110 -99z"/>
<path d="M2315 3759 c-249 -237 -370 -325 -495 -359 -26 -8 -142 -15 -280 -19
l-235 -6 -3 -610 -2 -610 35 -71 c79 -160 350 -373 945 -741 212 -131 217
-134 247 -122 25 9 197 115 468 288 263 167 507 357 599 464 25 30 59 83 76
120 l31 66 2 608 2 608 -235 6 c-248 7 -290 13 -380 59 -84 42 -265 193 -491
408 -48 45 -91 82 -95 82 -5 -1 -90 -77 -189 -171z m194 -1180 l1 -406 -114
-106 c-63 -59 -117 -107 -120 -107 -3 0 -6 242 -6 538 l0 537 113 101 112 100
6 -125 c4 -69 7 -309 8 -532z m508 64 c118 -104 222 -193 230 -200 8 -6 13
-16 12 -21 -6 -15 -442 -392 -454 -392 -5 0 -48 32 -94 72 l-85 72 60 54 c32
30 96 86 142 124 45 39 82 73 82 77 0 4 -63 62 -140 130 -77 67 -138 127 -134
132 7 11 155 139 161 139 2 0 101 -84 220 -187z m-876 37 c19 -15 12 -23 -150
-165 -93 -82 -173 -151 -178 -152 -16 -5 -147 123 -139 136 4 6 80 77 168 156
l161 144 59 -52 c33 -28 69 -59 79 -67z"/>
<path d="M2741 1080 c-124 -77 -228 -140 -232 -140 -11 0 -80 41 -244 145 -74
47 -142 85 -150 85 -21 0 -68 -25 -84 -43 -10 -13 -6 -20 21 -40 58 -44 442
-277 456 -277 8 0 26 8 40 19 15 10 61 39 103 63 42 25 152 94 244 154 l167
108 -36 33 c-20 18 -41 33 -48 33 -7 0 -114 -63 -237 -140z"/>
</g>
</svg>
